<?xml version="1.0" encoding="utf-8"?>
<!-- Generator: Adobe Illustrator 21.0.2, SVG Export Plug-In . SVG Version: 6.00 Build 0)  -->
<svg version="1.1" id="Layer_1" xmlns="http://www.w3.org/2000/svg" xmlns:xlink="http://www.w3.org/1999/xlink" x="0px" y="0px"
	 viewBox="0 0 717.1 318" style="enable-background:new 0 0 717.1 318;" xml:space="preserve">
<style type="text/css">
	.st0{fill:none;}
	.st1{fill:#785EA8;}
	.st2{fill:#FFFFFF;}
	.st3{fill:#313A41;}
</style>
<g>
	<g>
		<path class="st0" d="M166.5,154.3c-6.2-3.5-13.4-5.4-21-5.4l0,0c-7.6,0-14.8,2-21,5.4c-6.6-7.5-12.9-15-19.1-23.1
			c-6.1-9.1-12.1-19-18.5-30.1c0,0.1,2.1,23,2.2,24c0.4,2.1,10.1,54.7,10.1,54.7l0,0c1.3,5,2.6,9.8,4,14.6
			c-1.8,6.5-3.7,13.3-5.4,20.3c1.7,1.3,3.5,2.6,5.2,4c2.2-1.9,4.4-3.7,6.7-5.4c2.8,0.5,5.6,1.1,8.5,1.8c2.9,3.2,6,6.5,9,9.8
			c5.8,7.8,12,15.9,18.3,25l0,0l0,0l0,0l0,0c6.3-9,12.5-17.2,18.3-25c3.1-3.4,6.1-6.7,9-9.8c2.9-0.7,5.7-1.3,8.5-1.8
			c2.3,1.7,4.6,3.5,6.7,5.4c1.8-1.3,3.5-2.6,5.2-4c-1.8-7-3.5-13.7-5.4-20.3c1.3-4.8,2.6-9.6,4-14.6l0,0c0.1,0,9.8-52.7,10.1-54.7
			c0.1-0.9,2.1-23.9,2.2-24c-6.4,11.2-12.4,21-18.5,30.1C179.5,139.3,173.1,146.8,166.5,154.3z M121.4,198.7
			c-0.7-2.5-1.2-5.1-1.9-7.6c3.9,1.2,7.9,2.6,12,4.3c0.6,2.6,1.1,5.1,1.7,7.7C129.2,201.4,125.2,199.9,121.4,198.7z"/>
		<path class="st1" d="M119.5,191.1c0.7,2.5,1.2,5.1,1.9,7.6c3.8,1.2,7.8,2.7,11.8,4.4c-0.6-2.6-1.1-5.1-1.7-7.7
			C127.4,193.7,123.4,192.3,119.5,191.1z"/>
		<path class="st2" d="M197.2,97.1c-6.3,11-12.3,20.6-18.1,29.4c-4.3,5.7-9,11.4-14.6,17.9c-6-2.4-12.4-3.6-19-3.6l0,0l0,0l0,0l0,0
			c-6.5,0-12.9,1.2-19,3.6c-5.6-6.5-10.3-12.3-14.6-17.9c-5.9-8.7-11.8-18.4-18.1-29.4L76.2,66.2l3.2,42.3
			c1.4,15.4,1.5,17.1,1.6,17.7v0.1v0.1c0.2,1.2,2.9,15.8,5.2,28.2c1.2,6.7,2.5,13.4,3.4,18.4c0.4,2.5,0.9,4.6,1.1,6
			c0.1,0.7,0.2,1.3,0.3,1.7c0.1,0.2,0.1,0.4,0.1,0.5c0.1,0.2,0.1,0.4,0.1,0.6l0,0c1.2,4.3,2.3,8.5,3.4,12.5
			c-1.8,6.2-3.4,12.3-4.8,18.3l-1.2,5.1l4.2,3.2c1.6,1.2,3.4,2.6,5.4,4l5.2,3.9l4.9-4.3c1.1-1,2.2-1.9,3.4-2.8
			c0.7,0.1,1.5,0.3,2.3,0.5c0.8,0.9,1.6,1.8,2.4,2.6c1.5,1.7,3.1,3.4,4.7,5.1l0.5,0.7c5.7,7.5,11.5,15.3,17.4,23.8l6.6,9.5l0,0l0,0
			l0,0l0,0l6.6-9.5c6-8.6,11.8-16.3,17.4-23.8l0.5-0.7c1.6-1.8,3.2-3.5,4.7-5.1c0.8-0.9,1.6-1.8,2.4-2.6c0.7-0.1,1.5-0.3,2.3-0.5
			c1.2,0.9,2.3,1.8,3.4,2.8l4.9,4.3l5.2-3.9c2-1.5,3.7-2.8,5.4-4l4.2-3.2l-1.2-5.1c-1.5-6-3.2-12.1-4.8-18.3c1.1-4,2.3-8.2,3.4-12.5
			l0,0c0.1-0.2,0.1-0.4,0.1-0.6c0-0.1,0.1-0.3,0.1-0.5c0.1-0.4,0.2-1,0.3-1.7c0.3-1.5,0.7-3.5,1.1-6c1-5,2.1-11.6,3.4-18.4
			c2.3-12.4,5-27,5.2-28.2v-0.1v-0.1c0.1-0.6,0.3-2.4,1.6-17.7l3.2-42.3L197.2,97.1z"/>
	</g>
	<path class="st3" d="M202,125c0.1-0.9,2.1-23.9,2.2-24c-6.4,11.2-12.4,21-18.5,30.1c-6.2,8.1-12.6,15.6-19.1,23.1
		c-6.2-3.5-13.4-5.4-21-5.4c-7.6,0-14.8,2-21,5.4c-6.6-7.5-12.9-15-19.1-23.1c-6.1-9.1-12.1-19-18.5-30.1c0,0.1,2.1,23,2.2,24
		c0.4,2.1,10.3,55.6,10.1,54.7c1.3,5,2.6,9.8,4,14.6c-1.8,6.5-3.7,13.3-5.4,20.3c1.7,1.3,3.5,2.6,5.2,4c2.2-1.9,4.4-3.7,6.7-5.4
		c2.8,0.5,5.6,1.1,8.5,1.8c2.9,3.2,6,6.5,9,9.8c5.8,7.8,12,15.9,18.3,25c6.3-9,12.5-17.2,18.3-25c3.1-3.4,6.1-6.7,9-9.8
		c2.9-0.7,5.7-1.3,8.5-1.8c2.3,1.7,4.6,3.5,6.7,5.4c1.8-1.3,3.5-2.6,5.2-4c-1.8-7-3.5-13.7-5.4-20.3c1.3-4.8,2.6-9.6,4-14.6
		C191.7,180.7,201.6,127.1,202,125z M121.4,198.7c-0.7-2.5-1.2-5.1-1.9-7.6c3.9,1.2,7.9,2.6,12,4.3c0.6,2.6,1.1,5.1,1.7,7.7
		C129.2,201.4,125.2,199.9,121.4,198.7z M169.6,198.7c-3.8,1.2-7.8,2.7-11.8,4.4c0.6-2.6,1.1-5.1,1.7-7.7c4-1.6,8.1-3,12-4.3
		C170.9,193.7,170.2,196.2,169.6,198.7z"/>
</g>
<g>
	<polygon class="st0" points="444.3,195.4 425.4,195.4 425.4,160.9 408,160.9 408,212.8 431,212.8 444.3,200.6 444.3,212.8 
		461.7,212.8 461.7,160.9 444.3,160.9 	"/>
	<path class="st0" d="M272.2,180.4v32.4H297l13.2-12.1v12.1h17.4v-51.9h-33.9L272.2,180.4z M310.2,195.4h-18.9v-17.3h18.9V195.4z"/>
	<path class="st0" d="M492.5,173v-29.3h-19.1v5.6h1.7v11.7v51.9h34.2l19.5-17.8v-14.7v-5.2l1.7-1.6V161h-24.8L492.5,173z
		 M511.4,195.4h-18.9v-17.3h18.9V195.4z"/>
	<polygon class="st0" points="358.3,173 358.3,160.9 341,160.9 341,212.8 358.3,212.8 358.3,178.1 377.3,178.1 377.3,212.8 
		394.7,212.8 394.7,160.9 371.7,160.9 	"/>
	<polygon class="st0" points="626.4,143.6 607.5,143.6 607.5,149.2 609.2,149.2 609.2,160.9 609.2,193.3 609.2,198.5 607.5,200.1 
		607.5,212.8 643.2,212.8 643.2,195.4 626.4,195.4 626.4,178.1 643.2,178.1 643.2,160.9 626.4,160.9 	"/>
	<path class="st0" d="M542.1,178.7v14.7v5.2l-1.7,1.6v12.7h35.9l19.5-17.8v-34.1H562L542.1,178.7z M578.5,195.4h-18.9v-17.3h18.9
		V195.4z"/>
	<rect x="291.3" y="178.1" class="st2" width="18.9" height="17.3"/>
	<rect x="492.5" y="178.1" class="st2" width="18.9" height="17.3"/>
	<rect x="559.5" y="178.1" class="st2" width="18.9" height="17.3"/>
	<path class="st2" d="M643.2,149.2h-5.1v-5.6V132h-11.7h-18.9h-11.7v11.7v5.6H562h-4.5l-3.4,3L542.1,163v-2.1v-11.7h-11.7h-24.8H504
		v-5.6V132h-11.7h-19.1h-11.7v11.7v5.6h-17.4h-7.3h-11.7h-17.4h-1.7h-10h-1.7h-23h-1.7h-11.7h-17.4h-1.7h-10h-1.7h-33.9h-4.5l-3.4,3
		l-21.5,19.5l-3.8,3.5v5.2v32.4v11.7h11.7h24.8h4.5h8.7h17.4h1.7h10h1.7h17.4h11.7h7.3h17.4h1.7h10h1.7h23h4.5h8.8h17.4h1.7h10h1.7
		h34.2h4.5l3.4-3.1l11.5-10.6v1.9v11.7h11.7h35.9h4.5l3.4-3.1l11.5-10.6v1.9v11.7h11.7H643h11.7v-11.7v-17.4v-5.6v-11.7v-17.4v-11.7
		h-11.5V149.2z M327.6,212.8h-17.4v-12.1L297,212.8h-24.8v-32.4l21.5-19.5h33.9V212.8L327.6,212.8z M394.7,212.8h-17.4v-34.6h-18.9
		v34.6H341v-51.9h17.4V173l13.4-12.1h23V212.8z M461.7,212.8h-17.4v-12.1L431,212.8h-23v-51.9h17.4v34.6h18.9v-34.6h17.4V212.8z
		 M530.5,173.5l-1.7,1.6v5.2v14.7l-19.5,17.8h-34.2v-51.9v-11.7h-1.7v-5.6h19.1v29.3l13.4-12.1h24.8v12.7H530.5z M595.8,194.9
		l-19.5,17.8h-35.9v-12.7l1.7-1.6v-5.2v-14.7l19.7-17.8h33.9v34.1H595.8z M643.2,178.1h-16.7v17.3h16.7v17.4h-35.7v-12.7l1.7-1.6
		v-5.2v-32.6v-11.7h-1.7v-5.6h18.9v17.3h16.7V178.1z"/>
</g>
<g>
	<path class="st3" d="M297,212.8h-24.8v-32.4l21.5-19.5h35.7v51.9h-19.1v-12.1L297,212.8z M310.2,178.1h-18.9v17.3h18.9V178.1z"/>
	<path class="st3" d="M339.3,160.9h19.1V173l13.4-12.1h24.8v51.9h-19.1v-34.6h-18.9v34.6h-19.1v-51.9H339.3z"/>
	<path class="st3" d="M463.4,212.8h-19.1v-12.1L431,212.8h-24.8v-51.9h19.1v34.6h18.9v-34.6h19.1v51.9H463.4z"/>
	<path class="st3" d="M505.8,160.9h24.8v32.6l-21.1,19.5h-35.9v-69.1h19.1v29.3L505.8,160.9z M492.5,178.1v17.3h18.9v-17.3H492.5z"
		/>
	<path class="st3" d="M540.4,180.2l21.5-19.5h35.7v32.6l-21.1,19.5h-35.9v-32.6H540.4z M578.5,178.1h-18.9v17.3h18.9V178.1z"/>
	<path class="st3" d="M626.4,143.6v17.3h16.7v17.4h-16.7v17.3h16.7v17.4h-35.7v-69.1h18.9V143.6z"/>
</g>
</svg>
